<?xml version="1.0" encoding="UTF-8"?>
<svg id="__icons" xmlns="http://www.w3.org/2000/svg" viewBox="0 0 50 50">
  <defs>
    <style>
      .cls-1 {
        fill: #fff;
        stroke-width: 0px;
      }
    </style>
  </defs>
  <g id="icon__delete">
    <path class="cls-1" d="m23,30c-.77,0-1.54-.29-2.12-.88-1.17-1.17-1.17-3.07,0-4.24L44.88.88c1.17-1.17,3.07-1.17,4.24,0,1.17,1.17,1.17,3.07,0,4.24l-24,24c-.59.59-1.35.88-2.12.88Z"/>
    <path class="cls-1" d="m18.22,34.78c-.2,0-.39-.02-.59-.06-.19-.04-.38-.1-.56-.17-.18-.08-.35-.17-.51-.28-.17-.11-.32-.23-.46-.37-.14-.14-.26-.29-.37-.46-.11-.16-.2-.33-.28-.51-.07-.18-.13-.37-.17-.56-.04-.2-.06-.39-.06-.59,0-.79.32-1.57.88-2.12.14-.14.29-.26.46-.37.16-.11.33-.2.51-.28.18-.07.37-.13.56-.17.39-.08.79-.08,1.18,0,.19.04.38.1.56.17.18.08.35.17.52.28.16.11.31.23.45.37.56.55.88,1.33.88,2.12,0,.2-.02.39-.06.59-.04.19-.1.38-.17.56-.08.18-.17.35-.28.51-.11.17-.23.32-.37.46s-.29.26-.45.37c-.17.11-.34.2-.52.28-.18.07-.37.13-.56.17-.2.04-.39.06-.59.06Z"/>
    <path class="cls-1" d="m46,50H0V4h25.03c1.66,0,3,1.34,3,3s-1.34,3-3,3H6v34h34v-21.03c0-1.66,1.34-3,3-3s3,1.34,3,3v27.03Z"/>
  </g>
</svg>