<?xml version="1.0" encoding="UTF-8"?>
<svg id="__icons" xmlns="http://www.w3.org/2000/svg" viewBox="0 0 50 50">
  <defs>
    <style>
      .cls-1 {
        fill: #010101;
        stroke-width: 0px;
      }
    </style>
  </defs>
  <g id="icon__bars">
    <g>
      <path class="cls-1" d="m0,7.14c0-1.98,1.6-3.57,3.57-3.57h42.86c1.98,0,3.57,1.6,3.57,3.57s-1.6,3.57-3.57,3.57H3.57c-1.98,0-3.57-1.6-3.57-3.57Z"/>
      <path class="cls-1" d="m0,25c0-1.98,1.6-3.57,3.57-3.57h42.86c1.98,0,3.57,1.6,3.57,3.57s-1.6,3.57-3.57,3.57H3.57c-1.98,0-3.57-1.6-3.57-3.57Z"/>
      <path class="cls-1" d="m50,42.86c0,1.98-1.6,3.57-3.57,3.57H3.57c-1.98,0-3.57-1.6-3.57-3.57s1.6-3.57,3.57-3.57h42.86c1.98,0,3.57,1.6,3.57,3.57Z"/>
    </g>
  </g>
</svg>